<svg class="logo" viewBox="0 0 256 256"><path style="stroke-width:8;stroke-linejoin:round" class="hexagon" d="M 160.00,128.00 144.00,155.71 112.00,155.71 96.00,128.00 112.00,100.29 144.00,100.29 z"></path><path d="M 208.00,155.71 176.00,211.14 112.00,211.14" style="stroke-width:8;stroke-linejoin:round;stroke-linecap:round" class="line"></path><path style="stroke-width:8;stroke-linejoin:round" class="hexagon" d="M 224.00,155.71 216.00,169.57 200.00,169.57 192.00,155.71 200.00,141.86 216.00,141.86 z"></path><path d="M 64.00,183.43 32.00,128.00 64.00,72.57" style="stroke-width:8;stroke-linejoin:round;stroke-linecap:round" class="line"></path><path style="stroke-width:8;stroke-linejoin:round" class="hexagon" d="M 80.00,183.43 72.00,197.28 56.00,197.28 48.00,183.43 56.00,169.57 72.00,169.57 z"></path><path d="M 112.00,44.86 176.00,44.86 208.00,100.29" style="stroke-width:8;stroke-linejoin:round;stroke-linecap:round" class="line"></path><path style="stroke-width:8;stroke-linejoin:round" class="hexagon" d="M 128.00,44.86 120.00,58.72 104.00,58.72 96.00,44.86 104.00,31.01 120.00,31.01 z"></path></svg>